<?xml version="1.0" standalone="no"?>
<!DOCTYPE svg PUBLIC "-//W3C//DTD SVG 20010904//EN"
 "http://www.w3.org/TR/2001/REC-SVG-20010904/DTD/svg10.dtd">
<svg version="1.0" xmlns="http://www.w3.org/2000/svg"
 width="300.000000pt" height="314.000000pt" viewBox="0 0 300.000000 314.000000"
 preserveAspectRatio="xMidYMid meet">
<metadata>
Created by potrace 1.10, written by Peter Selinger 2001-2011
</metadata>
<g transform="translate(0.000000,314.000000) scale(0.100000,-0.100000)"
fill="#08fdd8" stroke="none">
<path d="M1315 2709 c-219 -32 -465 -150 -638 -309 -119 -109 -250 -300 -307
-450 -67 -175 -96 -423 -71 -601 63 -445 354 -813 769 -974 140 -54 273 -78
437 -78 331 1 624 124 862 362 299 300 417 745 307 1161 -120 455 -501 803
-968 885 -95 16 -291 18 -391 4z m475 -133 c52 -14 141 -48 196 -76 304 -149
508 -404 591 -736 36 -146 38 -349 5 -491 -54 -231 -154 -406 -319 -564 -320
-305 -785 -391 -1189 -219 -414 176 -673 566 -674 1010 0 148 11 221 50 344
110 341 367 600 710 715 120 40 204 51 375 47 133 -4 176 -8 255 -30z"/>
<path d="M1610 2210 c-25 -4 -63 -13 -86 -19 l-41 -11 -6 -92 c-3 -51 -13
-134 -22 -185 l-17 -92 -37 -5 c-20 -3 -62 -8 -94 -12 l-58 -6 7 90 c12 160
-22 266 -96 305 -79 41 -240 -6 -349 -101 -40 -34 -43 -40 -32 -60 15 -29 20
-28 80 12 50 34 125 54 156 42 26 -10 35 -53 35 -164 0 -169 -2 -172 -71 -206
-83 -40 -190 -142 -220 -208 -31 -71 -33 -165 -3 -204 39 -52 70 -69 132 -68
142 1 245 123 319 377 31 106 22 99 141 113 50 5 62 4 62 -7 0 -8 -11 -68 -25
-134 -14 -66 -25 -149 -25 -183 0 -59 2 -66 34 -98 30 -30 40 -34 86 -34 45 0
51 -2 40 -15 -12 -15 -7 -45 7 -45 5 0 19 17 32 38 13 22 39 47 58 57 28 15
33 23 28 42 -4 18 9 45 57 113 34 50 68 90 75 90 7 0 13 -3 13 -7 0 -5 -41
-128 -90 -274 -98 -288 -116 -384 -90 -463 36 -109 167 -79 336 78 38 35 83
82 99 105 30 40 30 41 96 41 84 0 152 33 215 103 62 70 78 101 60 116 -10 9
-17 5 -31 -16 -36 -54 -111 -126 -150 -144 -40 -18 -115 -26 -115 -11 0 4 21
39 46 77 129 199 191 410 150 510 -26 63 -85 72 -159 25 -140 -89 -226 -384
-160 -551 l14 -37 -63 -88 c-34 -49 -88 -115 -119 -147 -47 -49 -61 -58 -85
-55 -28 3 -29 4 -28 59 1 43 27 132 113 388 64 189 113 351 114 375 3 60 -16
79 -69 73 -42 -4 -42 -4 -33 20 5 13 9 31 9 38 0 18 -53 32 -147 41 -40 4 -73
7 -73 8 0 1 13 69 30 151 16 83 30 176 30 208 0 63 4 61 -80 47z m148 -512
c34 -5 62 -13 62 -17 0 -3 -13 -22 -28 -41 -16 -19 -66 -90 -111 -157 -46 -68
-87 -123 -92 -123 -5 0 -14 12 -20 28 -11 27 3 147 31 279 l12 53 41 -6 c23
-3 70 -10 105 -16z m470 -92 c6 -70 -65 -254 -159 -416 -31 -52 -33 -54 -40
-30 -14 48 -9 205 7 261 36 120 119 234 166 227 19 -2 24 -10 26 -42z m-1223
-60 c-33 -116 -85 -196 -130 -196 -32 0 -45 19 -45 65 0 66 60 148 147 201 48
29 52 17 28 -70z"/>
</g>
</svg>
